<?xml version="1.0" encoding="UTF-8"?>
<svg width="192px" height="60px" viewBox="0 0 192 60" version="1.1" xmlns="http://www.w3.org/2000/svg" xmlns:xlink="http://www.w3.org/1999/xlink">
    <title>Group</title>
    <g id="Symbols" stroke="none" stroke-width="1" fill="none" fill-rule="evenodd">
        <g id="Header-v3" transform="translate(-334.000000, -66.000000)">
            <g id="Group" transform="translate(336.000000, 68.000000)">
                <path d="M77.882243,35.9313084 L80.1728972,35.9313084 L80.1995327,35.9313084 L80.2528037,35.7448598 L81.3448598,31.4565421 L81.3004673,31.6252336 L77.6869159,31.6252336 L77.8556075,35.7448598 L77.864486,35.9313084 L77.882243,35.9313084 Z M123.295794,32.0780374 L118.137383,32.0780374 L118.279439,30.1957944 L118.288318,29.9649533 L118.297196,29.7429907 L118.297196,29.5299065 L118.297196,29.3345794 L118.288318,29.1481308 L118.279439,28.9794393 L118.261682,28.8196262 L118.243925,28.6775701 L118.226168,28.5443925 L118.199533,28.428972 L118.172897,28.3224299 L118.146262,28.2336449 L118.119626,28.1626168 L118.092991,28.1093458 L118.084112,28.0915888 L118.03972,28.0116822 L118.013084,27.9761682 L117.995327,27.9584112 L117.968692,27.9406542 L117.924299,27.9228972 L117.844393,27.8962617 L117.728972,27.8785047 L117.569159,27.8696262 L117.364953,27.8785047 L117.187383,27.9140187 L117.018692,27.9672897 L116.858879,28.0383178 L116.699065,28.1359813 L116.530374,28.2691589 L116.361682,28.4378505 L116.175234,28.6598131 L116.095327,28.7663551 L115.997664,28.9084112 L115.9,29.0593458 L115.802336,29.2280374 L115.704673,29.414486 L115.607009,29.6186916 L115.509346,29.8317757 L115.420561,30.0892523 L115.322897,30.3378505 L115.225234,30.6042056 L115.12757,30.8794393 L115.029907,31.1724299 L114.932243,31.4742991 L114.834579,31.7939252 L114.736916,32.1313084 L114.648131,32.4775701 L114.559346,32.8415888 L114.479439,33.1878505 L114.408411,33.5163551 L114.346262,33.8271028 L114.292991,34.128972 L114.248598,34.4130841 L114.213084,34.6794393 L114.186449,34.9280374 L114.168692,35.1588785 L114.159813,35.3719626 L114.159813,35.5672897 L114.159813,35.7359813 L114.168692,35.8869159 L114.186449,36.0200935 L114.204206,36.1266355 L114.213084,36.1799065 L114.257477,36.3042056 L114.284112,36.3574766 L114.292991,36.3752336 L114.301869,36.3841121 L114.328505,36.4018692 L114.399533,36.4285047 L114.541589,36.4551402 L114.754673,36.4640187 L114.967757,36.4551402 L115.171963,36.4285047 L115.376168,36.3752336 L115.580374,36.3042056 L115.784579,36.2065421 L115.997664,36.082243 L116.210748,35.9313084 L116.441589,35.7448598 L116.539252,35.6560748 L116.645794,35.5495327 L116.752336,35.4341121 L116.85,35.3186916 L116.947664,35.1943925 L117.045327,35.0700935 L117.134112,34.9369159 L117.222897,34.7948598 L117.311682,34.6439252 L117.391589,34.4929907 L117.471495,34.3331776 L117.551402,34.164486 L117.62243,33.9957944 L117.693458,33.8182243 L117.764486,33.6317757 L118.172897,32.3799065 L123.14486,32.3799065 L123.295794,32.0780374 Z M88.8294393,35.9313084 L90.5074766,35.9313084 L90.5518692,35.9313084 L90.5607477,35.9313084 L90.5607477,35.9313084 L90.5607477,35.9313084 L90.5696262,35.9313084 L90.5785047,35.9224299 L90.5962617,35.9135514 L90.6228972,35.8957944 L90.6584112,35.8691589 L90.7116822,35.8247664 L90.7738318,35.7537383 L90.8448598,35.6649533 L90.9247664,35.5584112 L91.0135514,35.4341121 L91.111215,35.2920561 L91.217757,35.1233645 L93.2509346,31.6518692 L89.2200935,31.6518692 L88.1280374,35.9490654 L88.8294393,35.9490654 L88.8294393,35.9313084 Z M148.37757,32.8593458 L148.466355,32.5663551 L148.55514,32.2556075 L148.643925,31.9359813 L148.73271,31.5985981 L148.812617,31.261215 L148.883645,30.9415888 L148.945794,30.6308411 L148.999065,30.3378505 L149.052336,30.0626168 L149.096729,29.8051402 L149.132243,29.5654206 L149.158879,29.3345794 L149.176636,29.1214953 L149.185514,28.9350467 L149.185514,28.7663551 L149.176636,28.6154206 L149.167757,28.482243 L149.158879,28.3668224 L149.141121,28.2869159 L149.132243,28.2514019 L149.096729,28.1537383 L149.08785,28.1271028 L149.061215,28.1093458 L148.981308,28.0827103 L148.839252,28.0560748 L148.670561,28.0471963 L146.735047,35.6383178 L146.806075,35.5939252 L146.957009,35.4785047 L147.116822,35.3364486 L147.285514,35.1411215 L147.356542,35.0523364 L147.445327,34.9280374 L147.534112,34.7859813 L147.622897,34.6350467 L147.711682,34.4663551 L147.809346,34.2799065 L147.907009,34.0757009 L148.004673,33.8537383 L148.102336,33.6228972 L148.2,33.3742991 L148.297664,33.1079439 L148.37757,32.8593458 Z M179.123832,28.7397196 L179.026168,28.8995327 L178.928505,29.0682243 L178.830841,29.2546729 L178.733178,29.4588785 L178.635514,29.6808411 L178.53785,29.9116822 L178.440187,30.1602804 L178.342523,30.4266355 L178.24486,30.7018692 L178.147196,30.9948598 L178.049533,31.3056075 L177.951869,31.6252336 L177.863084,31.9626168 L177.774299,32.3088785 L177.685514,32.6640187 L177.605607,33.0014019 L177.534579,33.3299065 L177.47243,33.6406542 L177.419159,33.9336449 L177.374766,34.217757 L177.339252,34.4841121 L177.312617,34.7327103 L177.29486,34.9635514 L177.277103,35.1766355 L177.268224,35.3719626 L177.268224,35.5495327 L177.277103,35.7004673 L177.285981,35.8336449 L177.303738,35.9490654 L177.312617,36.011215 L177.357009,36.1443925 L177.383645,36.1976636 L177.401402,36.2065421 L177.481308,36.2242991 L177.632243,36.2331776 L177.809813,36.2242991 L177.969626,36.1976636 L178.120561,36.153271 L178.262617,36.082243 L178.413551,35.9845794 L178.573364,35.8602804 L178.733178,35.6915888 L178.910748,35.4696262 L178.990654,35.3630841 L179.079439,35.221028 L179.177103,35.061215 L179.274766,34.8925234 L179.37243,34.7060748 L179.470093,34.5018692 L179.567757,34.2799065 L179.665421,34.0490654 L179.763084,33.8004673 L179.860748,33.5341121 L179.958411,33.2588785 L180.056075,32.9658879 L180.153738,32.6551402 L180.251402,32.335514 L180.340187,31.9981308 L180.428972,31.6429907 L180.517757,31.2878505 L180.597664,30.9504673 L180.668692,30.6219626 L180.730841,30.311215 L180.784112,30.0182243 L180.828505,29.7429907 L180.864019,29.4766355 L180.890654,29.2280374 L180.908411,28.9971963 L180.91729,28.7841121 L180.926168,28.588785 L180.926168,28.411215 L180.91729,28.2514019 L180.908411,28.1182243 L180.890654,28.0028037 L180.881776,27.9406542 L180.837383,27.7985981 L180.810748,27.7453271 L180.801869,27.7453271 L180.721963,27.7275701 L180.571028,27.7186916 L180.393458,27.7275701 L180.233645,27.7542056 L180.08271,27.7985981 L179.940654,27.8696262 L179.78972,27.9672897 L179.629907,28.0915888 L179.461215,28.2602804 L179.274766,28.482243 L179.19486,28.588785 L179.123832,28.7397196 Z M169.890187,29.6009346 L170.094393,29.1392523 L170.316355,28.6775701 L170.556075,28.2336449 L170.813551,27.7985981 L171.088785,27.3813084 L171.381776,26.9728972 L171.692523,26.582243 L172.021028,26.2093458 L172.36729,25.8453271 L172.731308,25.4990654 L173.104206,25.1705607 L173.49486,24.8509346 L173.903271,24.5490654 L174.320561,24.2649533 L174.746729,23.9985981 L175.181776,23.7588785 L175.634579,23.5369159 L176.096262,23.3327103 L176.566822,23.1462617 L177.046262,22.9864486 L177.534579,22.8443925 L178.031776,22.7200935 L178.53785,22.6135514 L179.043925,22.5247664 L179.558879,22.4626168 L180.08271,22.4182243 L180.615421,22.3915888 L181.157009,22.3827103 L181.68972,22.3915888 L182.213551,22.4182243 L182.719626,22.4626168 L183.216822,22.5336449 L183.696262,22.6224299 L184.166822,22.728972 L184.619626,22.8621495 L185.063551,23.0130841 L185.48972,23.1906542 L185.898131,23.3948598 L186.288785,23.6168224 L186.661682,23.8654206 L187.016822,24.1406542 L187.354206,24.4425234 L187.664953,24.7621495 L187.949065,25.1084112 L188.215421,25.4724299 L188.45514,25.8542056 L188.668224,26.2537383 L188.845794,26.6621495 L188.996729,27.0883178 L189.121028,27.5233645 L189.218692,27.9672897 L189.28972,28.4200935 L189.334112,28.8817757 L189.351869,29.3523364 L189.342991,29.8317757 L189.307477,30.3200935 L189.254206,30.8172897 L189.174299,31.3233645 L189.076636,31.8383178 L188.952336,32.3621495 L188.81028,32.8771028 L188.650467,33.3831776 L188.472897,33.8803738 L188.27757,34.3598131 L188.064486,34.8303738 L187.842523,35.2920561 L187.602804,35.7359813 L187.345327,36.171028 L187.070093,36.5883178 L186.777103,36.996729 L186.466355,37.3873832 L186.13785,37.7602804 L185.791589,38.1242991 L185.42757,38.4705607 L185.054673,38.7990654 L184.672897,39.1186916 L184.264486,39.4205607 L183.847196,39.7046729 L183.429907,39.953271 L182.99486,40.1929907 L182.542056,40.4149533 L182.080374,40.6191589 L181.609813,40.8056075 L181.130374,40.9654206 L180.642056,41.1074766 L180.14486,41.2317757 L179.638785,41.3383178 L179.123832,41.4271028 L178.6,41.4892523 L178.076168,41.5336449 L177.543458,41.5602804 L177.001869,41.5691589 L176.469159,41.5602804 L175.945327,41.5336449 L175.439252,41.4892523 L174.942056,41.4182243 L174.462617,41.3294393 L173.992056,41.2228972 L173.539252,41.0897196 L173.095327,40.938785 L172.669159,40.761215 L172.260748,40.5570093 L171.870093,40.3350467 L171.497196,40.0864486 L171.426168,40.0331776 L171.150935,41.1252336 L151.156542,41.1252336 L151.458411,39.9266355 L151.014486,40.1219626 L150.552804,40.2995327 L150.082243,40.4593458 L149.593925,40.6014019 L149.096729,40.7257009 L148.590654,40.832243 L148.066822,40.921028 L147.534112,40.9920561 L146.992523,41.0453271 L146.442056,41.0897196 L145.873832,41.1163551 L145.305607,41.1252336 L137.803271,41.1252336 L135.468224,41.1252336 L117.817757,41.1252336 L117.915421,40.7345794 L117.702336,40.8411215 L117.329439,41.0009346 L116.947664,41.1429907 L116.557009,41.2761682 L116.157477,41.3915888 L115.749065,41.4892523 L115.331776,41.5691589 L114.905607,41.6401869 L114.479439,41.6934579 L114.044393,41.728972 L113.600467,41.746729 L113.147664,41.7556075 L112.641589,41.728972 L112.135514,41.7023364 L111.647196,41.6579439 L111.167757,41.5869159 L110.706075,41.4981308 L110.253271,41.3915888 L109.818224,41.2584112 L109.392056,41.1074766 L108.983645,40.9299065 L108.592991,40.7257009 L108.220093,40.5037383 L107.864953,40.2551402 L107.731776,40.1485981 L107.483178,41.1163551 L89.228972,41.1163551 L87.5065421,41.1163551 L78.8766355,41.1163551 L76.5682243,41.1163551 L58.8733645,41.1163551 L60.1962617,35.9313084 L61.8742991,35.9313084 L61.9186916,35.9313084 L61.9275701,35.9313084 L61.9275701,35.9313084 L61.9275701,35.9313084 L61.9364486,35.9313084 L61.9453271,35.9224299 L61.9719626,35.9046729 L61.9985981,35.8869159 L62.0341121,35.8602804 L62.0785047,35.8158879 L62.1406542,35.7448598 L62.2116822,35.6560748 L62.2915888,35.5495327 L62.3803738,35.4252336 L62.4780374,35.2831776 L62.5845794,35.114486 L69.7672897,22.8443925 L77.3317757,22.8443925 L77.4649533,26.1738318 L78.3172897,22.8443925 L96.6957944,22.8443925 L95.3817757,27.9939252 L98.4004673,22.8443925 L105.964953,22.8443925 L106.284579,30.6841121 L106.417757,30.311215 L106.604206,29.8406542 L106.808411,29.378972 L107.021495,28.9261682 L107.252336,28.4911215 L107.500935,28.0649533 L107.76729,27.6476636 L108.051402,27.2481308 L108.344393,26.8574766 L108.65514,26.4845794 L108.983645,26.1205607 L109.321028,25.7742991 L109.676168,25.4369159 L110.049065,25.1172897 L110.430841,24.8065421 L110.821495,24.5224299 L111.221028,24.2560748 L111.629439,24.0074766 L112.046729,23.7766355 L112.472897,23.5635514 L112.907944,23.3682243 L113.351869,23.1995327 L113.804673,23.0485981 L114.266355,22.9154206 L114.736916,22.8088785 L115.207477,22.7200935 L115.686916,22.6490654 L116.175234,22.5957944 L116.663551,22.5691589 L117.151869,22.5602804 L117.489252,22.5691589 L117.817757,22.5869159 L118.137383,22.6135514 L118.457009,22.6490654 L118.767757,22.6934579 L119.078505,22.746729 L119.380374,22.8088785 L119.673364,22.8799065 L119.966355,22.9686916 L120.259346,23.0663551 L120.543458,23.1728972 L120.809813,22.7911215 L125.897196,22.7911215 L123.713084,31.3766355 L128.702804,22.853271 L136.26729,22.853271 L136.8,35.7626168 L136.808879,35.9490654 L138.691121,35.9490654 L138.7,35.9490654 L138.717757,35.8780374 L138.744393,35.7803738 L140.715421,28.0294393 L138.815421,28.0294393 L140.129439,22.853271 L149.194393,22.853271 L149.762617,22.8621495 L150.321963,22.888785 L150.863551,22.9331776 L151.387383,22.9864486 L151.893458,23.0574766 L152.381776,23.1462617 L152.852336,23.2528037 L153.30514,23.3859813 L153.749065,23.5369159 L154.175234,23.7056075 L154.583645,23.9009346 L154.974299,24.1228972 L155.338318,24.3626168 L155.684579,24.628972 L156.013084,24.9219626 L156.314953,25.2415888 L156.581308,25.578972 L156.821028,25.9429907 L157.034112,26.3247664 L157.211682,26.7242991 L157.362617,27.1327103 L157.486916,27.5588785 L157.575701,27.9939252 L157.63785,28.4378505 L157.673364,28.8906542 L157.682243,29.3523364 L157.673364,29.8228972 L157.63785,30.3023364 L157.628972,30.3733645 L161.100467,24.4336449 L160.434579,24.4336449 L162.956075,20.0121495 L171.763551,20.0121495 L169.63271,23.75 L169.890187,29.6009346 Z" id="Shape" fill="#FFFFFF"></path>
                <path d="M180.579907,26.2093458 C179.603271,26.2093458 178.77757,26.6621495 178.093925,27.567757 C177.419159,28.4733645 176.824299,29.9294393 176.309346,31.9359813 C175.785514,33.9780374 175.634579,35.4607477 175.838785,36.3752336 C176.051869,37.2808411 176.646729,37.7425234 177.614486,37.7425234 C178.6,37.7425234 179.425701,37.2897196 180.100467,36.3841121 C180.775234,35.4785047 181.361215,34.0224299 181.876168,32.0070093 C182.391121,29.9738318 182.550935,28.5 182.33785,27.585514 C182.142523,26.6621495 181.547664,26.2093458 180.579907,26.2093458 M170.689252,31.9803738 C171.328505,29.4588785 172.580374,27.4700935 174.44486,26.0317757 C176.300467,24.5934579 178.546729,23.8742991 181.183645,23.8742991 C183.802804,23.8742991 185.66729,24.5934579 186.79486,26.0317757 C187.913551,27.4700935 188.16215,29.45 187.514019,31.9803738 C186.874766,34.5018692 185.622897,36.4817757 183.76729,37.911215 C181.911682,39.3406542 179.665421,40.0509346 177.028505,40.0509346 C174.418224,40.0509346 172.553738,39.3317757 171.426168,37.8934579 C170.28972,36.4728972 170.05,34.4929907 170.689252,31.9803738 Z" id="Shape" fill="#009933" fill-rule="nonzero"></path>
                <path d="M163.542056,32.5042056 L163.4,27.8873832 L160.985047,32.5042056 L163.542056,32.5042056 Z M161.189252,39.6070093 L161.73972,37.4406542 L162.38785,37.4406542 C162.938318,37.4406542 163.284579,37.4140187 163.417757,37.3429907 C163.559813,37.2808411 163.648598,37.1565421 163.692991,36.978972 C163.719626,36.8635514 163.746262,36.7481308 163.75514,36.6415888 C163.764019,36.5350467 163.772897,36.4285047 163.764019,36.3308411 L163.657477,34.6971963 L159.750935,34.6971963 L158.925234,36.153271 C158.792056,36.3752336 158.694393,36.5528037 158.641121,36.6771028 C158.578972,36.8014019 158.534579,36.9168224 158.507944,37.0233645 C158.47243,37.1565421 158.534579,37.2542056 158.694393,37.3341121 C158.854206,37.4051402 159.093925,37.4406542 159.413551,37.4406542 L160.13271,37.4406542 L159.582243,39.6070093 L153.100935,39.6070093 L153.651402,37.4406542 L154.184112,37.4406542 C154.548131,37.4406542 154.885514,37.3163551 155.20514,37.0766355 C155.515888,36.8369159 155.835514,36.4285047 156.15514,35.8780374 L162.902804,24.3537383 L168.15,24.3537383 L168.620561,35.8336449 C168.664953,36.5883178 168.753738,37.05 168.904673,37.2098131 C169.055607,37.3696262 169.33972,37.4495327 169.765888,37.4495327 L170.529439,37.4495327 L169.978972,39.6158879 L161.189252,39.6158879 L161.189252,39.6070093 Z" id="Shape" fill="#009933" fill-rule="nonzero"></path>
                <path d="M149.194393,24.3448598 C152.097664,24.3448598 154.086449,24.9663551 155.169626,26.2182243 C156.252804,27.4700935 156.465888,29.3878505 155.808879,31.9626168 C155.151869,34.5462617 153.96215,36.4640187 152.230841,37.7158879 C150.508411,38.967757 148.191121,39.5981308 145.305607,39.5981308 L137.421495,39.5981308 L137.971963,37.4317757 L138.7,37.4317757 C139.179439,37.4317757 139.507944,37.3696262 139.685514,37.2542056 C139.863084,37.138785 140.031776,36.7925234 140.173832,36.2331776 L140.200467,36.117757 L142.32243,27.7897196 C142.473364,27.1948598 142.491121,26.8308411 142.384579,26.6976636 C142.278037,26.564486 141.976168,26.4934579 141.452336,26.4934579 L140.742056,26.4934579 L141.292523,24.3359813 L149.194393,24.3359813 L149.194393,24.3448598 Z M144.737383,37.3696262 L145.873832,37.3696262 C146.921495,37.3696262 147.78271,36.9523364 148.448598,36.1266355 C149.114486,35.2920561 149.700467,33.9070093 150.188785,31.9626168 C150.685981,30.0182243 150.81028,28.6242991 150.570561,27.7897196 C150.321963,26.9640187 149.673832,26.546729 148.626168,26.546729 L147.48972,26.546729 L144.737383,37.3696262 Z" id="Shape" fill="#009933" fill-rule="nonzero"></path>
                <path d="M99.8831776,32.5042056 L99.7411215,27.8873832 L97.3261682,32.5042056 L99.8831776,32.5042056 Z M97.5303738,39.6070093 L98.0808411,37.4406542 L98.728972,37.4406542 C99.2794393,37.4406542 99.6257009,37.4140187 99.7588785,37.3429907 C99.9009346,37.2808411 99.9897196,37.1565421 100.034112,36.978972 C100.060748,36.8635514 100.087383,36.7481308 100.096262,36.6415888 C100.10514,36.5350467 100.114019,36.4285047 100.10514,36.3308411 L99.9985981,34.6971963 L96.0920561,34.6971963 L95.2663551,36.153271 C95.1331776,36.3752336 95.035514,36.5528037 94.982243,36.6771028 C94.9200935,36.8014019 94.8757009,36.9168224 94.8490654,37.0233645 C94.8135514,37.1565421 94.8757009,37.2542056 95.035514,37.3341121 C95.1953271,37.4051402 95.4350467,37.4406542 95.7546729,37.4406542 L96.4738318,37.4406542 L95.9233645,39.6070093 L89.4420561,39.6070093 L89.9925234,37.4406542 L90.5252336,37.4406542 C90.8892523,37.4406542 91.2266355,37.3163551 91.5462617,37.0766355 C91.8570093,36.8369159 92.1766355,36.4285047 92.4962617,35.8780374 L99.2439252,24.3537383 L104.491121,24.3537383 L104.961682,35.8336449 C105.006075,36.5883178 105.09486,37.05 105.245794,37.2098131 C105.396729,37.3696262 105.680841,37.4495327 106.107009,37.4495327 L106.870561,37.4495327 L106.320093,39.6158879 L97.5303738,39.6158879 L97.5303738,39.6070093 Z" id="Shape" fill="#009933" fill-rule="nonzero"></path>
                <path d="M121.582243,33.8626168 C121.00514,35.9046729 119.992991,37.4761682 118.536916,38.5771028 C117.08972,39.6780374 115.287383,40.2285047 113.147664,40.2285047 C110.643925,40.2285047 108.89486,39.5271028 107.900467,38.1331776 C106.906075,36.7392523 106.746262,34.7415888 107.403271,32.1490654 C108.024766,29.6985981 109.223364,27.7364486 110.999065,26.2626168 C112.774766,24.788785 114.825701,24.0518692 117.160748,24.0518692 C117.942056,24.0518692 118.652336,24.1406542 119.28271,24.3093458 C119.921963,24.4869159 120.499065,24.753271 121.014019,25.1172897 L121.6,24.2738318 L123.952804,24.2738318 L122.354673,30.5598131 L119.753271,30.5598131 C119.87757,29.0948598 119.753271,28.0294393 119.407009,27.3635514 C119.051869,26.6976636 118.439252,26.3691589 117.56028,26.3691589 C116.539252,26.3691589 115.678037,26.8219626 114.985514,27.7275701 C114.292991,28.6331776 113.689252,30.0892523 113.174299,32.0957944 C112.650467,34.1733645 112.508411,35.6560748 112.748131,36.5705607 C112.996729,37.4761682 113.653738,37.9378505 114.736916,37.9378505 C115.713551,37.9378505 116.61028,37.5738318 117.427103,36.8369159 C118.243925,36.1 118.847664,35.1056075 119.238318,33.8537383 L121.582243,33.8537383 L121.582243,33.8626168 Z" id="Path" fill="#009933" fill-rule="nonzero"></path>
                <path d="M130.194393,32.5042056 L130.052336,27.8873832 L127.637383,32.5042056 L130.194393,32.5042056 Z M127.841589,39.6070093 L128.392056,37.4406542 L129.040187,37.4406542 C129.590654,37.4406542 129.936916,37.4140187 130.070093,37.3429907 C130.21215,37.2808411 130.300935,37.1565421 130.345327,36.978972 C130.371963,36.8635514 130.398598,36.7481308 130.407477,36.6415888 C130.416355,36.5350467 130.425234,36.4285047 130.416355,36.3308411 L130.309813,34.6971963 L126.403271,34.6971963 L125.57757,36.153271 C125.444393,36.3752336 125.346729,36.5528037 125.293458,36.6771028 C125.231308,36.8014019 125.186916,36.9168224 125.16028,37.0233645 C125.124766,37.1565421 125.186916,37.2542056 125.346729,37.3341121 C125.506542,37.4051402 125.746262,37.4406542 126.065888,37.4406542 L126.785047,37.4406542 L126.234579,39.6070093 L119.753271,39.6070093 L120.303738,37.4406542 L120.836449,37.4406542 C121.200467,37.4406542 121.53785,37.3163551 121.857477,37.0766355 C122.168224,36.8369159 122.48785,36.4285047 122.807477,35.8780374 L129.55514,24.3537383 L134.802336,24.3537383 L135.272897,35.8336449 C135.31729,36.5883178 135.406075,37.05 135.557009,37.2098131 C135.707944,37.3696262 135.992056,37.4495327 136.418224,37.4495327 L137.181776,37.4495327 L136.631308,39.6158879 L127.841589,39.6158879 L127.841589,39.6070093 Z" id="Shape" fill="#009933" fill-rule="nonzero"></path>
                <path d="M83.4757009,26.7331776 C82.685514,26.7331776 82.0018692,27.0172897 81.4336449,27.585514 C80.8654206,28.1537383 80.4481308,28.9794393 80.1728972,30.0537383 L80.1551402,30.1158879 L78.0154206,30.1158879 L79.4892523,24.3448598 L94.7514019,24.3448598 L93.2775701,30.1158879 L91.1556075,30.1158879 L91.1733645,30.0537383 C91.4485981,28.9794393 91.4397196,28.1626168 91.164486,27.585514 C90.8892523,27.0172897 90.338785,26.7242991 89.5397196,26.7242991 L88.9093458,26.7242991 L86.521028,36.117757 C86.3700935,36.7037383 86.3523364,37.067757 86.467757,37.2098131 C86.5742991,37.3518692 86.8850467,37.4228972 87.4,37.4228972 L88.6163551,37.4228972 L88.0658879,39.5892523 L78.5126168,39.5892523 L79.0630841,37.4228972 L80.1906542,37.4228972 C80.678972,37.4228972 81.0163551,37.3607477 81.2028037,37.2453271 C81.3892523,37.121028 81.5579439,36.7481308 81.717757,36.117757 L84.1060748,26.7242991 L83.4757009,26.7242991 L83.4757009,26.7331776 Z" id="Path" fill="#009933" fill-rule="nonzero"></path>
                <path d="M71.25,32.5042056 L71.1079439,27.8873832 L68.6929907,32.5042056 L71.25,32.5042056 Z M68.8971963,39.6070093 L69.4476636,37.4406542 L70.0957944,37.4406542 C70.6462617,37.4406542 70.9925234,37.4140187 71.1257009,37.3429907 C71.267757,37.2808411 71.3565421,37.1565421 71.4009346,36.978972 C71.4275701,36.8635514 71.4542056,36.7481308 71.4630841,36.6415888 C71.4719626,36.5350467 71.4808411,36.4285047 71.4719626,36.3308411 L71.3654206,34.6971963 L67.4766355,34.6971963 L66.6509346,36.153271 C66.517757,36.3752336 66.4200935,36.5528037 66.3668224,36.6771028 C66.3046729,36.8014019 66.2602804,36.9168224 66.2336449,37.0233645 C66.1981308,37.1565421 66.2602804,37.2542056 66.4200935,37.3341121 C66.5799065,37.4051402 66.8196262,37.4406542 67.1392523,37.4406542 L67.8584112,37.4406542 L67.3079439,39.6070093 L60.8266355,39.6070093 L61.3771028,37.4406542 L61.9098131,37.4406542 C62.2738318,37.4406542 62.611215,37.3163551 62.9308411,37.0766355 C63.2415888,36.8369159 63.561215,36.4285047 63.8808411,35.8780374 L70.6285047,24.3537383 L75.8757009,24.3537383 L76.3462617,35.8336449 C76.3906542,36.5883178 76.4794393,37.05 76.6303738,37.2098131 C76.7813084,37.3696262 77.0654206,37.4495327 77.4915888,37.4495327 L78.2551402,37.4495327 L77.7046729,39.6158879 L68.8971963,39.6158879 L68.8971963,39.6070093 Z" id="Shape" fill="#009933" fill-rule="nonzero"></path>
                <polygon id="Path" fill="#009933" points="163.852804 21.5214953 169.179907 21.5214953 168.380841 22.9242991 163.053738 22.9242991"></polygon>
                <path d="M39.917757,39.2429907 L39.917757,42.803271 C39.6514019,46.5233645 37.3785047,46.9761682 33.9602804,47.1892523 L33.9602804,55.6060748 L56.8668224,55.6060748 L56.8668224,47.2070093 C53.4485981,46.9850467 51.1579439,46.55 50.9004673,42.8121495 L50.9004673,39.2607477 L39.917757,39.2429907 Z" id="Path" stroke="#FFFFFF" stroke-width="3.3211" stroke-linejoin="round"></path>
                <path d="M39.917757,39.2429907 L39.917757,42.803271 C39.6514019,46.5233645 37.3785047,46.9761682 33.9602804,47.1892523 L33.9602804,55.6060748 L56.8668224,55.6060748 L56.8668224,47.2070093 C53.4485981,46.9850467 51.1579439,46.55 50.9004673,42.8121495 L50.9004673,39.2607477 L39.917757,39.2429907 Z" id="Path" fill="#FF6633"></path>
                <path d="M1.18971963,27.8607477 L57.0443925,27.8607477 C57.3817757,27.8607477 57.6481308,28.1714953 57.6481308,28.553271 L57.6481308,28.5621495 C57.6481308,28.9439252 57.3728972,29.2546729 57.0443925,29.2546729 L1.18971963,29.2546729 C0.852336449,29.2546729 0.585981308,28.9439252 0.585981308,28.5621495 L0.585981308,28.553271 C0.585981308,28.1714953 0.861214953,27.8607477 1.18971963,27.8607477 Z" id="Path" stroke="#FFFFFF" stroke-width="3.3196" stroke-linejoin="round"></path>
                <path d="M1.18971963,27.8607477 L57.0443925,27.8607477 C57.3817757,27.8607477 57.6481308,28.1714953 57.6481308,28.553271 L57.6481308,28.5621495 C57.6481308,28.9439252 57.3728972,29.2546729 57.0443925,29.2546729 L1.18971963,29.2546729 C0.852336449,29.2546729 0.585981308,28.9439252 0.585981308,28.5621495 L0.585981308,28.553271 C0.585981308,28.1714953 0.861214953,27.8607477 1.18971963,27.8607477" id="Path" fill="#299341"></path>
                <path d="M1.18971963,31.3411215 L57.0443925,31.3411215 C57.3817757,31.3411215 57.6481308,31.6518692 57.6481308,32.0336449 L57.6481308,32.0425234 C57.6481308,32.4242991 57.3728972,32.7350467 57.0443925,32.7350467 L1.18971963,32.7350467 C0.852336449,32.7350467 0.585981308,32.4242991 0.585981308,32.0425234 L0.585981308,32.0336449 C0.585981308,31.6518692 0.861214953,31.3411215 1.18971963,31.3411215 Z" id="Path" stroke="#FFFFFF" stroke-width="3.3196" stroke-linejoin="round"></path>
                <path d="M1.18971963,31.3411215 L57.0443925,31.3411215 C57.3817757,31.3411215 57.6481308,31.6518692 57.6481308,32.0336449 L57.6481308,32.0425234 C57.6481308,32.4242991 57.3728972,32.7350467 57.0443925,32.7350467 L1.18971963,32.7350467 C0.852336449,32.7350467 0.585981308,32.4242991 0.585981308,32.0425234 L0.585981308,32.0336449 C0.585981308,31.6518692 0.861214953,31.3411215 1.18971963,31.3411215" id="Path" fill="#299341"></path>
                <path d="M1.18971963,34.8214953 L57.0443925,34.8214953 C57.3817757,34.8214953 57.6481308,35.132243 57.6481308,35.5140187 L57.6481308,35.5228972 C57.6481308,35.9046729 57.3728972,36.2154206 57.0443925,36.2154206 L1.18971963,36.2154206 C0.852336449,36.2154206 0.585981308,35.9046729 0.585981308,35.5228972 L0.585981308,35.5140187 C0.585981308,35.132243 0.861214953,34.8214953 1.18971963,34.8214953 Z" id="Path" stroke="#FFFFFF" stroke-width="3.3196" stroke-linejoin="round"></path>
                <path d="M1.18971963,34.8214953 L57.0443925,34.8214953 C57.3817757,34.8214953 57.6481308,35.132243 57.6481308,35.5140187 L57.6481308,35.5228972 C57.6481308,35.9046729 57.3728972,36.2154206 57.0443925,36.2154206 L1.18971963,36.2154206 C0.852336449,36.2154206 0.585981308,35.9046729 0.585981308,35.5228972 L0.585981308,35.5140187 C0.585981308,35.132243 0.861214953,34.8214953 1.18971963,34.8214953" id="Path" fill="#299341"></path>
                <path d="M1.18971963,38.2308411 L57.0443925,38.2308411 C57.3817757,38.2308411 57.6481308,38.5415888 57.6481308,38.9233645 L57.6481308,38.932243 C57.6481308,39.3140187 57.3728972,39.6247664 57.0443925,39.6247664 L1.18971963,39.6247664 C0.852336449,39.6247664 0.585981308,39.3140187 0.585981308,38.932243 L0.585981308,38.9233645 C0.585981308,38.5415888 0.861214953,38.2308411 1.18971963,38.2308411 Z" id="Path" stroke="#FFFFFF" stroke-width="3.3196" stroke-linejoin="round"></path>
                <path d="M1.18971963,38.2308411 L57.0443925,38.2308411 C57.3817757,38.2308411 57.6481308,38.5415888 57.6481308,38.9233645 L57.6481308,38.932243 C57.6481308,39.3140187 57.3728972,39.6247664 57.0443925,39.6247664 L1.18971963,39.6247664 C0.852336449,39.6247664 0.585981308,39.3140187 0.585981308,38.932243 L0.585981308,38.9233645 C0.585981308,38.5415888 0.861214953,38.2308411 1.18971963,38.2308411" id="Path" fill="#299341"></path>
                <path d="M1.18971963,24.3803738 L57.0443925,24.3803738 C57.3817757,24.3803738 57.6481308,24.6911215 57.6481308,25.0728972 L57.6481308,25.0817757 C57.6481308,25.4635514 57.3728972,25.7742991 57.0443925,25.7742991 L1.18971963,25.7742991 C0.852336449,25.7742991 0.585981308,25.4635514 0.585981308,25.0817757 L0.585981308,25.0728972 C0.585981308,24.6911215 0.861214953,24.3803738 1.18971963,24.3803738 Z" id="Path" stroke="#FFFFFF" stroke-width="3.3196" stroke-linejoin="round"></path>
                <path d="M1.18971963,24.3803738 L57.0443925,24.3803738 C57.3817757,24.3803738 57.6481308,24.6911215 57.6481308,25.0728972 L57.6481308,25.0817757 C57.6481308,25.4635514 57.3728972,25.7742991 57.0443925,25.7742991 L1.18971963,25.7742991 C0.852336449,25.7742991 0.585981308,25.4635514 0.585981308,25.0817757 L0.585981308,25.0728972 C0.585981308,24.6911215 0.861214953,24.3803738 1.18971963,24.3803738" id="Path" fill="#299341"></path>
                <path d="M1.50046729,47.2247664 L1.50046729,55.6060748 L24.5845794,55.6060748 L24.5490654,47.2247664 C22.9154206,47.2247664 21.85,47.0915888 21.1219626,46.4434579 C20.3672897,45.8042056 20.4028037,45.0228972 21.2196262,43.735514 L39.9088785,14.8803738 L39.9088785,24.4425234 L50.8383178,24.4425234 L50.8383178,0.585981308 L37.6537383,0.585981308 L10.7962617,41.8443925 C7.99953271,46.1771028 7.05841121,47.3224299 1.50046729,47.2247664 Z" id="Path" stroke="#FFFFFF" stroke-width="3.321" stroke-linejoin="round"></path>
                <path d="M1.50046729,47.2247664 L1.50046729,55.6060748 L24.5845794,55.6060748 L24.5490654,47.2247664 C22.9154206,47.2247664 21.85,47.0915888 21.1219626,46.4434579 C20.3672897,45.8042056 20.4028037,45.0228972 21.2196262,43.7443925 L39.9088785,14.8892523 L39.9088785,24.4514019 L50.8383178,24.4514019 L50.8383178,0.585981308 L37.6537383,0.585981308 L10.7962617,41.8443925 C7.99953271,46.1771028 7.05841121,47.3224299 1.50046729,47.2247664" id="Path" fill="#FF6633"></path>
                <polygon id="Path" fill="#FF6633" points="24.0341121 21.5126168 35.6915888 21.4149533 31.3588785 28.1004673 19.9056075 27.8607477"></polygon>
                <rect id="Rectangle" fill="#4B9A5D" x="37.8313084" y="24.3803738" width="15.4663551" height="1.39392523"></rect>
            </g>
        </g>
    </g>
</svg>